<mxfile host="app.diagrams.net" modified="2021-07-02T14:20:02.314Z" agent="5.0 (Windows NT 10.0; Win64; x64) AppleWebKit/537.36 (KHTML, like Gecko) Chrome/91.0.4472.124 Safari/537.36" etag="jlGMyCLT4RjQl7LW6-km" version="14.8.2" type="github">
  <diagram name="Page-1" id="97916047-d0de-89f5-080d-49f4d83e522f">
    <mxGraphModel dx="1887" dy="1091" grid="1" gridSize="10" guides="1" tooltips="1" connect="1" arrows="1" fold="1" page="1" pageScale="1.5" pageWidth="1169" pageHeight="827" background="none" math="0" shadow="0">
      <root>
        <mxCell id="0" />
        <mxCell id="1" parent="0" />
        <mxCell id="7" value="Users" style="rounded=1;fillColor=#10739E;strokeColor=none;shadow=1;gradientColor=none;fontStyle=1;fontColor=#FFFFFF;fontSize=16;spacing=2;" parent="1" vertex="1">
          <mxGeometry x="200" y="140" width="190" height="50" as="geometry" />
        </mxCell>
        <mxCell id="rJ3aGdKmb5TKuyw39_h3-55" value="Posts" style="rounded=1;fillColor=#10739E;strokeColor=none;shadow=1;gradientColor=none;fontStyle=1;fontColor=#FFFFFF;fontSize=16;spacing=2;" parent="1" vertex="1">
          <mxGeometry x="520" y="140" width="190" height="50" as="geometry" />
        </mxCell>
        <mxCell id="rJ3aGdKmb5TKuyw39_h3-56" value="Sites" style="rounded=1;fillColor=#10739E;strokeColor=none;shadow=1;gradientColor=none;fontStyle=1;fontColor=#FFFFFF;fontSize=16;spacing=2;" parent="1" vertex="1">
          <mxGeometry x="830" y="140" width="190" height="50" as="geometry" />
        </mxCell>
        <mxCell id="rJ3aGdKmb5TKuyw39_h3-173" style="edgeStyle=orthogonalEdgeStyle;rounded=0;orthogonalLoop=1;jettySize=auto;html=1;entryX=0;entryY=0.5;entryDx=0;entryDy=0;fontSize=16;fontColor=#3333FF;targetPerimeterSpacing=0;strokeWidth=2;strokeColor=#6666FF;" parent="1" source="rJ3aGdKmb5TKuyw39_h3-57" target="rJ3aGdKmb5TKuyw39_h3-172" edge="1">
          <mxGeometry relative="1" as="geometry">
            <Array as="points">
              <mxPoint x="460" y="235" />
              <mxPoint x="460" y="1635" />
            </Array>
          </mxGeometry>
        </mxCell>
        <mxCell id="rJ3aGdKmb5TKuyw39_h3-175" style="edgeStyle=orthogonalEdgeStyle;rounded=0;orthogonalLoop=1;jettySize=auto;html=1;entryX=0;entryY=0.5;entryDx=0;entryDy=0;fontSize=16;fontColor=#3333FF;targetPerimeterSpacing=0;strokeWidth=2;strokeColor=#6666FF;" parent="1" source="rJ3aGdKmb5TKuyw39_h3-57" target="rJ3aGdKmb5TKuyw39_h3-174" edge="1">
          <mxGeometry relative="1" as="geometry">
            <Array as="points">
              <mxPoint x="430" y="235" />
              <mxPoint x="430" y="1705" />
            </Array>
          </mxGeometry>
        </mxCell>
        <mxCell id="rJ3aGdKmb5TKuyw39_h3-179" style="edgeStyle=orthogonalEdgeStyle;rounded=0;orthogonalLoop=1;jettySize=auto;html=1;entryX=0;entryY=0.5;entryDx=0;entryDy=0;fontSize=16;fontColor=#3333FF;targetPerimeterSpacing=0;strokeColor=#6666FF;strokeWidth=2;" parent="1" source="rJ3aGdKmb5TKuyw39_h3-57" target="rJ3aGdKmb5TKuyw39_h3-171" edge="1">
          <mxGeometry relative="1" as="geometry">
            <Array as="points">
              <mxPoint x="490" y="235" />
              <mxPoint x="490" y="1565" />
            </Array>
          </mxGeometry>
        </mxCell>
        <mxCell id="rWSi3-J1DLjIoyEVDis9-10" style="edgeStyle=orthogonalEdgeStyle;rounded=0;orthogonalLoop=1;jettySize=auto;html=1;entryX=0;entryY=0.5;entryDx=0;entryDy=0;fillColor=#d5e8d4;strokeWidth=2;strokeColor=#67AB9F;" edge="1" parent="1" source="rJ3aGdKmb5TKuyw39_h3-57" target="rWSi3-J1DLjIoyEVDis9-9">
          <mxGeometry relative="1" as="geometry">
            <Array as="points">
              <mxPoint x="400" y="235" />
              <mxPoint x="400" y="200" />
              <mxPoint x="765" y="200" />
              <mxPoint x="765" y="270" />
              <mxPoint x="1130" y="270" />
              <mxPoint x="1130" y="375" />
            </Array>
          </mxGeometry>
        </mxCell>
        <mxCell id="rJ3aGdKmb5TKuyw39_h3-57" value="ID" style="rounded=1;shadow=1;gradientColor=none;fontStyle=1;fontSize=16;spacing=2;labelBackgroundColor=none;" parent="1" vertex="1">
          <mxGeometry x="220" y="210" width="150" height="50" as="geometry" />
        </mxCell>
        <mxCell id="rJ3aGdKmb5TKuyw39_h3-58" value="login" style="rounded=1;shadow=1;gradientColor=none;fontStyle=1;fontSize=16;spacing=2;labelBackgroundColor=none;" parent="1" vertex="1">
          <mxGeometry x="220" y="280" width="150" height="50" as="geometry" />
        </mxCell>
        <mxCell id="rJ3aGdKmb5TKuyw39_h3-59" value="password" style="rounded=1;shadow=1;gradientColor=none;fontStyle=1;fontSize=16;spacing=2;labelBackgroundColor=none;" parent="1" vertex="1">
          <mxGeometry x="220" y="350" width="150" height="50" as="geometry" />
        </mxCell>
        <mxCell id="rJ3aGdKmb5TKuyw39_h3-60" value="name" style="rounded=1;shadow=1;gradientColor=none;fontStyle=1;fontSize=16;spacing=2;labelBackgroundColor=none;" parent="1" vertex="1">
          <mxGeometry x="220" y="420" width="150" height="50" as="geometry" />
        </mxCell>
        <mxCell id="rJ3aGdKmb5TKuyw39_h3-61" value="last_name" style="rounded=1;shadow=1;gradientColor=none;fontStyle=1;fontSize=16;spacing=2;labelBackgroundColor=none;" parent="1" vertex="1">
          <mxGeometry x="220" y="490" width="150" height="50" as="geometry" />
        </mxCell>
        <mxCell id="rJ3aGdKmb5TKuyw39_h3-62" value="phone" style="rounded=1;shadow=1;gradientColor=none;fontStyle=1;fontSize=16;spacing=2;labelBackgroundColor=none;" parent="1" vertex="1">
          <mxGeometry x="220" y="560" width="150" height="50" as="geometry" />
        </mxCell>
        <mxCell id="rJ3aGdKmb5TKuyw39_h3-63" value="role" style="rounded=1;shadow=1;gradientColor=none;fontStyle=1;fontSize=16;spacing=2;labelBackgroundColor=none;" parent="1" vertex="1">
          <mxGeometry x="220" y="630" width="150" height="50" as="geometry" />
        </mxCell>
        <mxCell id="rJ3aGdKmb5TKuyw39_h3-64" value="sites_list (arr)" style="rounded=1;shadow=1;gradientColor=none;fontStyle=1;fontSize=16;spacing=2;labelBackgroundColor=none;" parent="1" vertex="1">
          <mxGeometry x="220" y="700" width="150" height="50" as="geometry" />
        </mxCell>
        <mxCell id="rJ3aGdKmb5TKuyw39_h3-65" value="params" style="rounded=1;shadow=1;gradientColor=none;fontStyle=1;fontSize=16;spacing=2;labelBackgroundColor=none;" parent="1" vertex="1">
          <mxGeometry x="220" y="770" width="150" height="50" as="geometry" />
        </mxCell>
        <mxCell id="rJ3aGdKmb5TKuyw39_h3-67" value="ID" style="rounded=1;shadow=1;gradientColor=none;fontStyle=1;fontSize=16;spacing=2;labelBackgroundColor=none;" parent="1" vertex="1">
          <mxGeometry x="540" y="210" width="150" height="50" as="geometry" />
        </mxCell>
        <mxCell id="rJ3aGdKmb5TKuyw39_h3-68" value="status" style="rounded=1;shadow=1;gradientColor=none;fontStyle=1;fontSize=16;spacing=2;labelBackgroundColor=none;" parent="1" vertex="1">
          <mxGeometry x="540" y="1750" width="150" height="50" as="geometry" />
        </mxCell>
        <mxCell id="rJ3aGdKmb5TKuyw39_h3-69" value="created_at" style="rounded=1;shadow=1;gradientColor=none;fontStyle=1;fontSize=16;spacing=2;labelBackgroundColor=none;" parent="1" vertex="1">
          <mxGeometry x="540" y="1400" width="150" height="50" as="geometry" />
        </mxCell>
        <mxCell id="rJ3aGdKmb5TKuyw39_h3-70" value="updated_at" style="rounded=1;shadow=1;gradientColor=none;fontStyle=1;fontSize=16;spacing=2;labelBackgroundColor=none;" parent="1" vertex="1">
          <mxGeometry x="540" y="1470" width="150" height="50" as="geometry" />
        </mxCell>
        <mxCell id="rJ3aGdKmb5TKuyw39_h3-71" value="patient_name" style="rounded=1;shadow=1;gradientColor=none;fontStyle=1;fontSize=16;spacing=2;labelBackgroundColor=none;labelBorderColor=#000000;" parent="1" vertex="1">
          <mxGeometry x="540" y="280" width="150" height="50" as="geometry" />
        </mxCell>
        <mxCell id="rJ3aGdKmb5TKuyw39_h3-72" value="patient_phone" style="rounded=1;shadow=1;gradientColor=none;fontStyle=1;fontSize=16;spacing=2;labelBackgroundColor=none;" parent="1" vertex="1">
          <mxGeometry x="540" y="770" width="150" height="50" as="geometry" />
        </mxCell>
        <mxCell id="rJ3aGdKmb5TKuyw39_h3-128" style="edgeStyle=orthogonalEdgeStyle;rounded=0;orthogonalLoop=1;jettySize=auto;html=1;entryX=1;entryY=0.5;entryDx=0;entryDy=0;fontSize=16;fontColor=#3333FF;strokeWidth=2;strokeColor=#FF33FF;" parent="1" source="rJ3aGdKmb5TKuyw39_h3-90" target="rJ3aGdKmb5TKuyw39_h3-125" edge="1">
          <mxGeometry relative="1" as="geometry">
            <Array as="points">
              <mxPoint x="770" y="235" />
              <mxPoint x="770" y="445" />
            </Array>
          </mxGeometry>
        </mxCell>
        <mxCell id="rJ3aGdKmb5TKuyw39_h3-90" value="ID" style="rounded=1;shadow=1;gradientColor=none;fontStyle=1;fontSize=16;spacing=2;labelBackgroundColor=none;" parent="1" vertex="1">
          <mxGeometry x="850" y="210" width="150" height="50" as="geometry" />
        </mxCell>
        <mxCell id="rJ3aGdKmb5TKuyw39_h3-91" value="id_sites" style="rounded=1;shadow=1;gradientColor=none;fontStyle=1;fontSize=16;spacing=2;labelBackgroundColor=none;" parent="1" vertex="1">
          <mxGeometry x="850" y="280" width="150" height="50" as="geometry" />
        </mxCell>
        <mxCell id="rJ3aGdKmb5TKuyw39_h3-92" value="id_research" style="rounded=1;shadow=1;gradientColor=none;fontStyle=1;fontSize=16;spacing=2;labelBackgroundColor=none;" parent="1" vertex="1">
          <mxGeometry x="850" y="350" width="150" height="50" as="geometry" />
        </mxCell>
        <mxCell id="rJ3aGdKmb5TKuyw39_h3-93" value="name" style="rounded=1;shadow=1;gradientColor=none;fontStyle=1;fontSize=16;spacing=2;labelBackgroundColor=none;" parent="1" vertex="1">
          <mxGeometry x="850" y="420" width="150" height="50" as="geometry" />
        </mxCell>
        <mxCell id="rJ3aGdKmb5TKuyw39_h3-94" value="location" style="rounded=1;shadow=1;gradientColor=none;fontStyle=1;fontSize=16;spacing=2;labelBackgroundColor=none;" parent="1" vertex="1">
          <mxGeometry x="850" y="490" width="150" height="50" as="geometry" />
        </mxCell>
        <mxCell id="rJ3aGdKmb5TKuyw39_h3-95" value="comment" style="rounded=1;shadow=1;gradientColor=none;fontStyle=1;fontSize=16;spacing=2;labelBackgroundColor=none;" parent="1" vertex="1">
          <mxGeometry x="850" y="560" width="150" height="50" as="geometry" />
        </mxCell>
        <mxCell id="rJ3aGdKmb5TKuyw39_h3-102" value="Patients" style="rounded=1;fillColor=#10739E;strokeColor=none;shadow=1;gradientColor=none;fontStyle=1;fontColor=#FFFFFF;fontSize=16;spacing=2;" parent="1" vertex="1">
          <mxGeometry x="1140" y="140" width="190" height="50" as="geometry" />
        </mxCell>
        <mxCell id="rJ3aGdKmb5TKuyw39_h3-103" value="ID" style="rounded=1;shadow=1;gradientColor=none;fontStyle=1;fontSize=16;spacing=2;labelBackgroundColor=none;" parent="1" vertex="1">
          <mxGeometry x="1160" y="210" width="150" height="50" as="geometry" />
        </mxCell>
        <mxCell id="rJ3aGdKmb5TKuyw39_h3-104" value="site_id" style="rounded=1;shadow=1;gradientColor=none;fontStyle=1;fontSize=16;spacing=2;labelBackgroundColor=none;" parent="1" vertex="1">
          <mxGeometry x="1160" y="280" width="150" height="50" as="geometry" />
        </mxCell>
        <mxCell id="rJ3aGdKmb5TKuyw39_h3-177" style="edgeStyle=orthogonalEdgeStyle;rounded=0;orthogonalLoop=1;jettySize=auto;html=1;entryX=1;entryY=0.5;entryDx=0;entryDy=0;fontSize=16;fontColor=#3333FF;targetPerimeterSpacing=0;strokeColor=#67AB9F;strokeWidth=2;" parent="1" source="rJ3aGdKmb5TKuyw39_h3-105" target="rJ3aGdKmb5TKuyw39_h3-71" edge="1">
          <mxGeometry relative="1" as="geometry">
            <Array as="points">
              <mxPoint x="1150" y="445" />
              <mxPoint x="1150" y="340" />
              <mxPoint x="720" y="340" />
              <mxPoint x="720" y="305" />
            </Array>
          </mxGeometry>
        </mxCell>
        <mxCell id="rJ3aGdKmb5TKuyw39_h3-105" value="name" style="rounded=1;shadow=1;gradientColor=none;fontStyle=1;fontSize=16;spacing=2;labelBackgroundColor=none;" parent="1" vertex="1">
          <mxGeometry x="1160" y="560" width="150" height="50" as="geometry" />
        </mxCell>
        <mxCell id="rJ3aGdKmb5TKuyw39_h3-178" style="edgeStyle=orthogonalEdgeStyle;rounded=0;orthogonalLoop=1;jettySize=auto;html=1;entryX=1;entryY=0.5;entryDx=0;entryDy=0;fontSize=16;fontColor=#3333FF;targetPerimeterSpacing=0;strokeColor=#67AB9F;strokeWidth=2;" parent="1" source="rJ3aGdKmb5TKuyw39_h3-106" target="rJ3aGdKmb5TKuyw39_h3-122" edge="1">
          <mxGeometry relative="1" as="geometry">
            <Array as="points">
              <mxPoint x="1150" y="655" />
              <mxPoint x="1150" y="500" />
              <mxPoint x="1130" y="500" />
              <mxPoint x="1130" y="410" />
              <mxPoint x="720" y="410" />
              <mxPoint x="720" y="375" />
            </Array>
          </mxGeometry>
        </mxCell>
        <mxCell id="rJ3aGdKmb5TKuyw39_h3-106" value="last_name" style="rounded=1;shadow=1;gradientColor=none;fontStyle=1;fontSize=16;spacing=2;labelBackgroundColor=none;" parent="1" vertex="1">
          <mxGeometry x="1160" y="630" width="150" height="50" as="geometry" />
        </mxCell>
        <mxCell id="rJ3aGdKmb5TKuyw39_h3-176" style="edgeStyle=orthogonalEdgeStyle;rounded=0;orthogonalLoop=1;jettySize=auto;html=1;entryX=1;entryY=0.5;entryDx=0;entryDy=0;fontSize=16;fontColor=#3333FF;targetPerimeterSpacing=0;strokeColor=#67AB9F;strokeWidth=2;" parent="1" source="rJ3aGdKmb5TKuyw39_h3-107" target="rJ3aGdKmb5TKuyw39_h3-72" edge="1">
          <mxGeometry relative="1" as="geometry">
            <Array as="points">
              <mxPoint x="1150" y="720" />
              <mxPoint x="1150" y="830" />
              <mxPoint x="720" y="830" />
              <mxPoint x="720" y="795" />
            </Array>
          </mxGeometry>
        </mxCell>
        <mxCell id="rJ3aGdKmb5TKuyw39_h3-107" value="phone" style="rounded=1;shadow=1;gradientColor=none;fontStyle=1;fontSize=16;spacing=2;labelBackgroundColor=none;" parent="1" vertex="1">
          <mxGeometry x="1160" y="700" width="150" height="50" as="geometry" />
        </mxCell>
        <mxCell id="rJ3aGdKmb5TKuyw39_h3-137" style="edgeStyle=orthogonalEdgeStyle;rounded=0;orthogonalLoop=1;jettySize=auto;html=1;entryX=1;entryY=0.5;entryDx=0;entryDy=0;fontSize=16;fontColor=#3333FF;strokeWidth=2;strokeColor=#67AB9F;targetPerimeterSpacing=0;exitX=0;exitY=0.5;exitDx=0;exitDy=0;" parent="1" source="rJ3aGdKmb5TKuyw39_h3-108" target="rJ3aGdKmb5TKuyw39_h3-136" edge="1">
          <mxGeometry relative="1" as="geometry">
            <Array as="points">
              <mxPoint x="1160" y="520" />
              <mxPoint x="1130" y="520" />
              <mxPoint x="1130" y="760" />
              <mxPoint x="720" y="760" />
              <mxPoint x="720" y="725" />
            </Array>
          </mxGeometry>
        </mxCell>
        <mxCell id="rJ3aGdKmb5TKuyw39_h3-108" value="id_patient" style="rounded=1;shadow=1;gradientColor=none;fontStyle=1;fontSize=16;spacing=2;labelBackgroundColor=none;" parent="1" vertex="1">
          <mxGeometry x="1160" y="490" width="150" height="50" as="geometry" />
        </mxCell>
        <mxCell id="rJ3aGdKmb5TKuyw39_h3-115" value="" style="endArrow=classic;html=1;fontSize=16;exitX=1;exitY=0.5;exitDx=0;exitDy=0;entryX=0;entryY=0;entryDx=0;entryDy=0;fontColor=#3333FF;strokeWidth=2;strokeColor=#FF33FF;" parent="1" source="rJ3aGdKmb5TKuyw39_h3-90" target="rJ3aGdKmb5TKuyw39_h3-104" edge="1">
          <mxGeometry width="50" height="50" relative="1" as="geometry">
            <mxPoint x="1020" y="260" as="sourcePoint" />
            <mxPoint x="1070" y="210" as="targetPoint" />
          </mxGeometry>
        </mxCell>
        <mxCell id="rJ3aGdKmb5TKuyw39_h3-119" value="comment" style="rounded=1;shadow=1;gradientColor=none;fontStyle=1;fontSize=16;spacing=2;labelBackgroundColor=none;whiteSpace=wrap;" parent="1" vertex="1">
          <mxGeometry x="1160" y="840" width="150" height="50" as="geometry" />
        </mxCell>
        <mxCell id="rJ3aGdKmb5TKuyw39_h3-120" value="created_at" style="rounded=1;shadow=1;gradientColor=none;fontStyle=1;fontSize=16;spacing=2;labelBackgroundColor=none;" parent="1" vertex="1">
          <mxGeometry x="220" y="840" width="150" height="50" as="geometry" />
        </mxCell>
        <mxCell id="rJ3aGdKmb5TKuyw39_h3-121" value="updated_at" style="rounded=1;shadow=1;gradientColor=none;fontStyle=1;fontSize=16;spacing=2;labelBackgroundColor=none;" parent="1" vertex="1">
          <mxGeometry x="220" y="910" width="150" height="50" as="geometry" />
        </mxCell>
        <mxCell id="rJ3aGdKmb5TKuyw39_h3-122" value="patient_last_name" style="rounded=1;shadow=1;gradientColor=none;fontStyle=1;fontSize=16;spacing=2;labelBackgroundColor=none;" parent="1" vertex="1">
          <mxGeometry x="540" y="350" width="150" height="50" as="geometry" />
        </mxCell>
        <mxCell id="rJ3aGdKmb5TKuyw39_h3-125" value="site_id" style="rounded=1;shadow=1;gradientColor=none;fontStyle=1;fontSize=16;spacing=2;labelBackgroundColor=none;whiteSpace=wrap;" parent="1" vertex="1">
          <mxGeometry x="540" y="420" width="150" height="50" as="geometry" />
        </mxCell>
        <mxCell id="rJ3aGdKmb5TKuyw39_h3-126" value="responsible" style="rounded=1;shadow=1;gradientColor=none;fontStyle=1;fontSize=16;spacing=2;labelBackgroundColor=none;" parent="1" vertex="1">
          <mxGeometry x="540" y="490" width="150" height="50" as="geometry" />
        </mxCell>
        <mxCell id="rJ3aGdKmb5TKuyw39_h3-136" value="id_patient" style="rounded=1;shadow=1;gradientColor=none;fontStyle=1;fontSize=16;spacing=2;labelBackgroundColor=none;" parent="1" vertex="1">
          <mxGeometry x="540" y="700" width="150" height="50" as="geometry" />
        </mxCell>
        <mxCell id="rJ3aGdKmb5TKuyw39_h3-154" value="order_params" style="rounded=1;shadow=1;gradientColor=none;fontStyle=1;fontSize=16;spacing=2;labelBackgroundColor=none;" parent="1" vertex="1">
          <mxGeometry x="540" y="840" width="150" height="50" as="geometry" />
        </mxCell>
        <mxCell id="rJ3aGdKmb5TKuyw39_h3-155" value="tickets_num" style="rounded=1;shadow=1;gradientColor=none;fontStyle=1;fontSize=16;spacing=2;labelBackgroundColor=none;labelBorderColor=none;" parent="1" vertex="1">
          <mxGeometry x="540" y="980" width="150" height="50" as="geometry" />
        </mxCell>
        <mxCell id="rJ3aGdKmb5TKuyw39_h3-156" value="dinner" style="rounded=1;shadow=1;gradientColor=none;fontStyle=1;fontSize=16;spacing=2;labelBackgroundColor=none;" parent="1" vertex="1">
          <mxGeometry x="540" y="1120" width="150" height="50" as="geometry" />
        </mxCell>
        <mxCell id="rJ3aGdKmb5TKuyw39_h3-157" value="point_to" style="rounded=1;shadow=1;gradientColor=none;fontStyle=1;fontSize=16;spacing=2;labelBackgroundColor=none;" parent="1" vertex="1">
          <mxGeometry x="540" y="1190" width="150" height="50" as="geometry" />
        </mxCell>
        <mxCell id="rJ3aGdKmb5TKuyw39_h3-158" value="points_from" style="rounded=1;shadow=1;gradientColor=none;fontStyle=1;fontSize=16;spacing=2;labelBackgroundColor=none;" parent="1" vertex="1">
          <mxGeometry x="540" y="1260" width="150" height="50" as="geometry" />
        </mxCell>
        <mxCell id="rJ3aGdKmb5TKuyw39_h3-159" value="comment" style="rounded=1;shadow=1;gradientColor=none;fontStyle=1;fontSize=16;spacing=2;labelBackgroundColor=none;" parent="1" vertex="1">
          <mxGeometry x="540" y="1330" width="150" height="50" as="geometry" />
        </mxCell>
        <mxCell id="rJ3aGdKmb5TKuyw39_h3-160" value="transportation_time" style="rounded=1;shadow=1;gradientColor=none;fontStyle=1;fontSize=16;spacing=2;labelBackgroundColor=none;" parent="1" vertex="1">
          <mxGeometry x="540" y="560" width="150" height="50" as="geometry" />
        </mxCell>
        <mxCell id="rJ3aGdKmb5TKuyw39_h3-163" value="car_arrivel (TS)" style="rounded=1;shadow=1;gradientColor=none;fontStyle=1;fontSize=16;spacing=2;labelBackgroundColor=none;" parent="1" vertex="1">
          <mxGeometry x="540" y="630" width="150" height="50" as="geometry" />
        </mxCell>
        <mxCell id="rJ3aGdKmb5TKuyw39_h3-165" value="trips_num" style="rounded=1;shadow=1;gradientColor=none;fontStyle=1;fontSize=16;spacing=2;labelBackgroundColor=none;" parent="1" vertex="1">
          <mxGeometry x="540" y="910" width="150" height="50" as="geometry" />
        </mxCell>
        <mxCell id="rJ3aGdKmb5TKuyw39_h3-166" value="attachment" style="rounded=1;shadow=1;gradientColor=none;fontStyle=1;fontSize=16;spacing=2;labelBackgroundColor=none;" parent="1" vertex="1">
          <mxGeometry x="540" y="1050" width="150" height="50" as="geometry" />
        </mxCell>
        <mxCell id="rJ3aGdKmb5TKuyw39_h3-171" value="user_create_id" style="rounded=1;shadow=1;gradientColor=none;fontStyle=1;fontSize=16;spacing=2;labelBackgroundColor=none;" parent="1" vertex="1">
          <mxGeometry x="540" y="1540" width="150" height="50" as="geometry" />
        </mxCell>
        <mxCell id="rJ3aGdKmb5TKuyw39_h3-172" value="user_update_id" style="rounded=1;shadow=1;gradientColor=none;fontStyle=1;fontSize=16;spacing=2;labelBackgroundColor=none;" parent="1" vertex="1">
          <mxGeometry x="540" y="1610" width="150" height="50" as="geometry" />
        </mxCell>
        <mxCell id="rJ3aGdKmb5TKuyw39_h3-174" value="status_change_user" style="rounded=1;shadow=1;gradientColor=none;fontStyle=1;fontSize=16;spacing=2;labelBackgroundColor=none;" parent="1" vertex="1">
          <mxGeometry x="540" y="1680" width="150" height="50" as="geometry" />
        </mxCell>
        <mxCell id="rWSi3-J1DLjIoyEVDis9-7" value="params" style="rounded=1;shadow=1;gradientColor=none;fontStyle=1;fontSize=16;spacing=2;labelBackgroundColor=none;" vertex="1" parent="1">
          <mxGeometry x="850" y="630" width="150" height="50" as="geometry" />
        </mxCell>
        <mxCell id="rWSi3-J1DLjIoyEVDis9-8" value="params" style="rounded=1;shadow=1;gradientColor=none;fontStyle=1;fontSize=16;spacing=2;labelBackgroundColor=none;whiteSpace=wrap;" vertex="1" parent="1">
          <mxGeometry x="1160" y="910" width="150" height="50" as="geometry" />
        </mxCell>
        <mxCell id="rWSi3-J1DLjIoyEVDis9-9" value="user_create_id" style="rounded=1;shadow=1;gradientColor=none;fontStyle=1;fontSize=16;spacing=2;labelBackgroundColor=none;whiteSpace=wrap;" vertex="1" parent="1">
          <mxGeometry x="1160" y="350" width="150" height="50" as="geometry" />
        </mxCell>
        <mxCell id="rWSi3-J1DLjIoyEVDis9-11" value="user_update_id" style="rounded=1;shadow=1;gradientColor=none;fontStyle=1;fontSize=16;spacing=2;labelBackgroundColor=none;whiteSpace=wrap;" vertex="1" parent="1">
          <mxGeometry x="1160" y="420" width="150" height="50" as="geometry" />
        </mxCell>
        <mxCell id="rWSi3-J1DLjIoyEVDis9-12" value="user_create_id" style="rounded=1;shadow=1;gradientColor=none;fontStyle=1;fontSize=16;spacing=2;labelBackgroundColor=none;whiteSpace=wrap;" vertex="1" parent="1">
          <mxGeometry x="850" y="700" width="150" height="50" as="geometry" />
        </mxCell>
        <mxCell id="rWSi3-J1DLjIoyEVDis9-13" value="user_update_id" style="rounded=1;shadow=1;gradientColor=none;fontStyle=1;fontSize=16;spacing=2;labelBackgroundColor=none;whiteSpace=wrap;" vertex="1" parent="1">
          <mxGeometry x="850" y="770" width="150" height="50" as="geometry" />
        </mxCell>
        <mxCell id="rWSi3-J1DLjIoyEVDis9-14" value="location" style="rounded=1;shadow=1;gradientColor=none;fontStyle=1;fontSize=16;spacing=2;labelBackgroundColor=none;" vertex="1" parent="1">
          <mxGeometry x="1160" y="770" width="150" height="50" as="geometry" />
        </mxCell>
        <mxCell id="rWSi3-J1DLjIoyEVDis9-15" value="Templates" style="rounded=1;fillColor=#10739E;strokeColor=none;shadow=1;gradientColor=none;fontStyle=1;fontColor=#FFFFFF;fontSize=16;spacing=2;" vertex="1" parent="1">
          <mxGeometry x="1440" y="140" width="190" height="50" as="geometry" />
        </mxCell>
        <mxCell id="rWSi3-J1DLjIoyEVDis9-16" value="ID" style="rounded=1;shadow=1;gradientColor=none;fontStyle=1;fontSize=16;spacing=2;labelBackgroundColor=none;" vertex="1" parent="1">
          <mxGeometry x="1460" y="210" width="150" height="50" as="geometry" />
        </mxCell>
        <mxCell id="rWSi3-J1DLjIoyEVDis9-21" value="comment" style="rounded=1;shadow=1;gradientColor=none;fontStyle=1;fontSize=16;spacing=2;labelBackgroundColor=none;" vertex="1" parent="1">
          <mxGeometry x="1460" y="280" width="150" height="50" as="geometry" />
        </mxCell>
        <mxCell id="rWSi3-J1DLjIoyEVDis9-22" value="params" style="rounded=1;shadow=1;gradientColor=none;fontStyle=1;fontSize=16;spacing=2;labelBackgroundColor=none;" vertex="1" parent="1">
          <mxGeometry x="1460" y="350" width="150" height="50" as="geometry" />
        </mxCell>
        <mxCell id="rWSi3-J1DLjIoyEVDis9-23" value="user_create_id" style="rounded=1;shadow=1;gradientColor=none;fontStyle=1;fontSize=16;spacing=2;labelBackgroundColor=none;whiteSpace=wrap;" vertex="1" parent="1">
          <mxGeometry x="1460" y="420" width="150" height="50" as="geometry" />
        </mxCell>
        <mxCell id="rWSi3-J1DLjIoyEVDis9-24" value="user_update_id" style="rounded=1;shadow=1;gradientColor=none;fontStyle=1;fontSize=16;spacing=2;labelBackgroundColor=none;whiteSpace=wrap;" vertex="1" parent="1">
          <mxGeometry x="1460" y="490" width="150" height="50" as="geometry" />
        </mxCell>
        <mxCell id="rWSi3-J1DLjIoyEVDis9-25" value="Оповещения" style="rounded=1;shadow=1;gradientColor=none;fontStyle=1;fontSize=16;spacing=2;labelBackgroundColor=none;" vertex="1" parent="1">
          <mxGeometry x="2760" y="140" width="250" height="50" as="geometry" />
        </mxCell>
        <mxCell id="rWSi3-J1DLjIoyEVDis9-26" value="Новый пользователь" style="rounded=1;shadow=1;gradientColor=none;fontStyle=1;fontSize=16;spacing=2;labelBackgroundColor=none;" vertex="1" parent="1">
          <mxGeometry x="2810" y="210" width="200" height="50" as="geometry" />
        </mxCell>
        <mxCell id="rWSi3-J1DLjIoyEVDis9-27" value="Изменение статуса" style="rounded=1;shadow=1;gradientColor=none;fontStyle=1;fontSize=16;spacing=2;labelBackgroundColor=none;" vertex="1" parent="1">
          <mxGeometry x="2810" y="420" width="200" height="50" as="geometry" />
        </mxCell>
        <mxCell id="rWSi3-J1DLjIoyEVDis9-28" value="Вход в кабинет" style="rounded=1;shadow=1;gradientColor=none;fontStyle=1;fontSize=16;spacing=2;labelBackgroundColor=none;" vertex="1" parent="1">
          <mxGeometry x="2810" y="280" width="200" height="50" as="geometry" />
        </mxCell>
        <mxCell id="rWSi3-J1DLjIoyEVDis9-29" value="Templates_settings" style="rounded=1;fillColor=#10739E;strokeColor=none;shadow=1;gradientColor=none;fontStyle=1;fontColor=#FFFFFF;fontSize=16;spacing=2;" vertex="1" parent="1">
          <mxGeometry x="1700" y="140" width="190" height="50" as="geometry" />
        </mxCell>
        <mxCell id="rWSi3-J1DLjIoyEVDis9-30" value="ID" style="rounded=1;shadow=1;gradientColor=none;fontStyle=1;fontSize=16;spacing=2;labelBackgroundColor=none;" vertex="1" parent="1">
          <mxGeometry x="1720" y="210" width="150" height="50" as="geometry" />
        </mxCell>
        <mxCell id="rWSi3-J1DLjIoyEVDis9-31" value="comment" style="rounded=1;shadow=1;gradientColor=none;fontStyle=1;fontSize=16;spacing=2;labelBackgroundColor=none;" vertex="1" parent="1">
          <mxGeometry x="1720" y="280" width="150" height="50" as="geometry" />
        </mxCell>
        <mxCell id="rWSi3-J1DLjIoyEVDis9-32" value="params" style="rounded=1;shadow=1;gradientColor=none;fontStyle=1;fontSize=16;spacing=2;labelBackgroundColor=none;" vertex="1" parent="1">
          <mxGeometry x="1720" y="350" width="150" height="50" as="geometry" />
        </mxCell>
        <mxCell id="rWSi3-J1DLjIoyEVDis9-33" value="user_create_id" style="rounded=1;shadow=1;gradientColor=none;fontStyle=1;fontSize=16;spacing=2;labelBackgroundColor=none;whiteSpace=wrap;" vertex="1" parent="1">
          <mxGeometry x="1720" y="420" width="150" height="50" as="geometry" />
        </mxCell>
        <mxCell id="rWSi3-J1DLjIoyEVDis9-34" value="user_update_id" style="rounded=1;shadow=1;gradientColor=none;fontStyle=1;fontSize=16;spacing=2;labelBackgroundColor=none;whiteSpace=wrap;" vertex="1" parent="1">
          <mxGeometry x="1720" y="490" width="150" height="50" as="geometry" />
        </mxCell>
        <mxCell id="rWSi3-J1DLjIoyEVDis9-35" value="Создание заявки" style="rounded=1;shadow=1;gradientColor=none;fontStyle=1;fontSize=16;spacing=2;labelBackgroundColor=none;" vertex="1" parent="1">
          <mxGeometry x="2810" y="350" width="200" height="50" as="geometry" />
        </mxCell>
        <mxCell id="rWSi3-J1DLjIoyEVDis9-36" value="Settings" style="rounded=1;fillColor=#10739E;strokeColor=none;shadow=1;gradientColor=none;fontStyle=1;fontColor=#FFFFFF;fontSize=16;spacing=2;" vertex="1" parent="1">
          <mxGeometry x="1960" y="140" width="190" height="50" as="geometry" />
        </mxCell>
        <mxCell id="rWSi3-J1DLjIoyEVDis9-37" value="ID" style="rounded=1;shadow=1;gradientColor=none;fontStyle=1;fontSize=16;spacing=2;labelBackgroundColor=none;" vertex="1" parent="1">
          <mxGeometry x="1980" y="210" width="150" height="50" as="geometry" />
        </mxCell>
        <mxCell id="rWSi3-J1DLjIoyEVDis9-38" value="notification_mail" style="rounded=1;shadow=1;gradientColor=none;fontStyle=1;fontSize=16;spacing=2;labelBackgroundColor=none;" vertex="1" parent="1">
          <mxGeometry x="1980" y="280" width="150" height="50" as="geometry" />
        </mxCell>
        <mxCell id="rWSi3-J1DLjIoyEVDis9-39" value="is_new_user" style="rounded=1;shadow=1;gradientColor=none;fontStyle=1;fontSize=16;spacing=2;labelBackgroundColor=none;" vertex="1" parent="1">
          <mxGeometry x="1980" y="350" width="150" height="50" as="geometry" />
        </mxCell>
        <mxCell id="rWSi3-J1DLjIoyEVDis9-40" value="is_login_user" style="rounded=1;shadow=1;gradientColor=none;fontStyle=1;fontSize=16;spacing=2;labelBackgroundColor=none;whiteSpace=wrap;" vertex="1" parent="1">
          <mxGeometry x="1980" y="420" width="150" height="50" as="geometry" />
        </mxCell>
        <mxCell id="rWSi3-J1DLjIoyEVDis9-41" value="is_create_post" style="rounded=1;shadow=1;gradientColor=none;fontStyle=1;fontSize=16;spacing=2;labelBackgroundColor=none;whiteSpace=wrap;" vertex="1" parent="1">
          <mxGeometry x="1980" y="490" width="150" height="50" as="geometry" />
        </mxCell>
        <mxCell id="rWSi3-J1DLjIoyEVDis9-42" value="is_change_status_post" style="rounded=1;shadow=1;gradientColor=none;fontStyle=1;fontSize=16;spacing=2;labelBackgroundColor=none;whiteSpace=wrap;" vertex="1" parent="1">
          <mxGeometry x="1980" y="560" width="210" height="50" as="geometry" />
        </mxCell>
      </root>
    </mxGraphModel>
  </diagram>
</mxfile>
